<svg width="676" height="676" xmlns="http://www.w3.org/2000/svg">
 <title>male_avatar</title>

 <g>
  <title>background</title>
  <rect fill="none" id="canvas_background" height="402" width="582" y="-1" x="-1"/>
 </g>
 <g>
  <title>Layer 1</title>
  <path id="svg_1" fill="#ff9f43" d="m676,338a336.852,336.852 0 0 1 -27.22,133.1l-1.12,2.58a338.559,338.559 0 0 1 -368.31,197.25q-3.045,-0.54 -6.08,-1.12a334.98111,334.98111 0 0 1 -61.14,-18.03q-4.815,-1.935 -9.56,-4.01c-2.16,-0.94 -4.32,-1.91 -6.46,-2.91a338.41424,338.41424 0 0 1 -196.11,-306.86c0,-186.67 151.33,-338 338,-338s338,151.33 338,338z"/>
  <path id="svg_2" opacity="0.2" d="m279.35,670.93q-3.045,-0.54 -6.08,-1.12c-1.32,-38.31 -5.85,-116.94 -21.30005,-199.29c-8.44995,-45.07 -20.17995,-91.27 -36.44995,-132.57a412.60387,412.60387 0 0 0 -19.07,-41.84c-16.44,-31.05 -36.38,-57.19 -60.56,-74.9l3.56,-4.86q30.165,22.11 54.22,62.08q7.215,11.97 13.86005,25.54q7.125,14.52 13.59,30.83q4.125,10.38 7.97,21.48q16.74,48.195 28.46,109.98q2.59506,13.65 4.94,27.97c12.10995,73.97 15.75995,142.36 16.85995,176.7z"/>
  <path id="svg_3" opacity="0.2" d="m202.57,647.77c-2.16,-0.94 -4.32,-1.91 -6.46,-2.91c-2.09,-22.7 -5.93,-50.86 -12.95,-77.59a254.55666,254.55666 0 0 0 -11.81,-35.2c-8.01,-18.75 -18.38,-34.69 -31.79,-44.52l3.56,-4.85c14.04,10.28 24.87,26.53 33.24,45.54c9.43,21.42 15.72,46.35 19.91,70.17c3.11,17.69 5.07,34.78 6.3,49.36z"/>
  <circle id="svg_4" opacity="0.2" r="30.08857" cy="190.98167" cx="102.26174"/>
  <circle id="svg_5" opacity="0.2" r="30.08857" cy="449.99083" cx="111.9514"/>
  <path id="svg_6" opacity="0.2" d="m221.71449,241.52139c-6.38046,35.99732 7.70456,68.59225 7.70456,68.59225s24.42979,-25.76825 30.81025,-61.76557s-7.70457,-68.59225 -7.70457,-68.59225s-24.42979,25.76825 -30.81024,61.76557z"/>
  <path id="svg_7" opacity="0.2" d="m121.71766,326.97122c34.33494,12.555 68.83676,4.498 68.83676,4.498s-21.16612,-28.41279 -55.50106,-40.96784s-68.83675,-4.498 -68.83675,-4.498s21.16611,28.41279 55.50105,40.96784z"/>
  <path id="svg_8" opacity="0.2" d="m115.89534,556.333c24.066,8.80008 48.28314,3.0594 48.28314,3.0594s-14.80161,-20.0084 -38.86762,-28.8085s-48.28314,-3.0594 -48.28314,-3.0594s14.80161,20.00842 38.86762,28.8085z"/>
  <circle id="svg_9" fill="#f5f5f5" r="131.77014" cy="281.0788" cx="337.30608"/>
  <path id="svg_10" fill="#f5f5f5" d="m285.83337,381.96531s16.47127,78.23852 16.47127,86.47415s78.23852,45.296 78.23852,45.296l70.00284,-12.35346l24.707,-74.12071s-41.17817,-61.76725 -41.17817,-86.47415l-148.24146,41.17817z"/>
  <path id="svg_11" fill="#2f2e41" d="m648.78,471.1l-1.12,2.58a338.559,338.559 0 0 1 -368.31,197.25q-3.045,-0.54 -6.08,-1.12a334.98111,334.98111 0 0 1 -61.14,-18.03q-4.815,-1.935 -9.56,-4.01c-2.16,-0.94 -4.32,-1.91 -6.46,-2.91a337.59273,337.59273 0 0 1 -55.25,-32.28l-15.62,-45.31l8.78,-6.69995l18.06,-13.79l19.27,-14.71l5.01,-3.83l75.61,-57.72l5.58,-4.26l39.3,-30l0.01,-0.01s42.5,69.25 104.27,48.66s60.42,-79.63 60.42,-79.63l187.23,65.81995z"/>
  <path id="svg_12" fill="#2f2e41" d="m223.03538,174.916s41.83653,-90.64581 122.02321,-69.72755s125.50958,52.29566 128.996,83.67306s-1.74319,78.44348 -1.74319,78.44348s-8.716,-64.498 -64.498,-50.55247s-142.94147,3.48638 -142.94147,3.48638l-13.94553,125.50959s-15.6887,-22.66145 -33.12058,-8.71594s-50.55247,-134.22555 5.22956,-162.11655z"/>
  <path id="svg_13" fill="#2f2e41" d="m212.13,651.78q-4.815,-1.935 -9.56,-4.01c-2.16,-0.94 -4.32,-1.91 -6.46,-2.91a338.835,338.835 0 0 1 -87.59,-58.7c9.19,-12.52 16.72,-18.89 16.72,-18.89l61.77,0l9.26,31.14l15.86,53.37z"/>
  <path id="svg_14" fill="#2f2e41" d="m594.67,464.32l52.99,9.36a337.94434,337.94434 0 0 1 -56.76,88.57l3.77,-97.93z"/>
 </g>
</svg>