<svg width="920.4182" height="560.80333" xmlns="http://www.w3.org/2000/svg">
 <title>town</title>

 <g>
  <title>background</title>
  <rect fill="none" id="canvas_background" height="402" width="582" y="-1" x="-1"/>
 </g>
 <g>
  <title>Layer 1</title>
  <rect id="svg_1" fill="#f2f2f2" height="6" width="163" y="392.40166" x="84.2091"/>
  <rect id="svg_2" fill="#f2f2f2" height="6" width="163" y="392.40166" x="453.2091"/>
  <rect id="svg_3" fill="#f2f2f2" height="6" width="163" y="392.40166" x="704.2091"/>
  <path id="svg_4" fill="#f2f2f2" d="m868.164636,301.518527a19.8,19.8 0 0 0 -4.148,2.867a19.742,19.742 0 0 0 -4.21608,-2.867a19.80023,19.80023 0 0 0 -4.148,2.867a19.74178,19.74178 0 0 0 -4.21607,-2.867s-6.50164,3.19763 -6.48362,7.10505q0.0006,0.14657 0.01332,0.2916c0.22192,2.55828 6.94384,3.21014 10.6365,2.00449a15.247,15.247 0 0 0 8.36405,0c3.67688,1.22494 10.53552,0.52316 10.736,-2.06447q0.01126,-0.14511 0.01067,-0.2917c-0.01793,-3.90743 -6.54877,-7.04497 -6.54877,-7.04497z"/>
  <polygon id="svg_5" fill="#333333" points="6.972 167.108 1.204 162.494 33.501 133.658 115.397 133.658 115.397 159.034 62.338 194.791 6.972 167.108"/>
  <polygon id="svg_6" fill="#ccc" points="129.82899475097656,149.83299255371094 129.82899475097656,134.23399353027344 118.95600128173828,134.23399353027344 118.95600128173828,138.0540008544922 114.89700317382812,133.6580047607422 88.36799621582031,162.49400329589844 77.98699951171875,169.4149932861328 61.88999938964844,287.0159912109375 86.16500091552734,311.2909851074219 142.58099365234375,311.2909851074219 142.58099365234375,163.6479949951172 129.82899475097656,149.83299255371094 "/>
  <rect id="svg_7" fill="#f2f2f2" height="148.79717" width="87.66345" y="162.49427" x="1.20428"/>
  <rect id="svg_8" fill="#ccc" height="36.33419" width="16.14853" y="274.95725" x="35.23154"/>
  <polygon id="svg_9" fill="#333333" points="17.93 285.338 17.93 279.571 11.009 279.571 11.009 285.338 17.353 285.338 17.93 285.338"/>
  <polygon id="svg_10" fill="#333333" points="17.353 289.952 11.009 289.952 11.009 295.72 17.93 295.72 17.93 289.952 17.353 289.952"/>
  <rect id="svg_11" fill="#333333" height="5.76733" width="6.9208" y="279.57111" x="22.54341"/>
  <rect id="svg_12" fill="#333333" height="5.76733" width="6.9208" y="289.95231" x="22.54341"/>
  <polygon id="svg_13" fill="#333333" points="65.222 285.338 65.222 279.571 58.301 279.571 58.301 285.338 64.645 285.338 65.222 285.338"/>
  <polygon id="svg_14" fill="#333333" points="64.645 289.952 58.301 289.952 58.301 295.72 65.222 295.72 65.222 289.952 64.645 289.952"/>
  <rect id="svg_15" fill="#333333" height="5.76733" width="6.9208" y="279.57111" x="69.83553"/>
  <rect id="svg_16" fill="#333333" height="5.76733" width="6.9208" y="289.95231" x="69.83553"/>
  <polygon id="svg_17" fill="#3f3d56" points="113.667 169.992 113.667 164.224 106.746 164.224 106.746 169.992 113.091 169.992 113.667 169.992"/>
  <polygon id="svg_18" fill="#3f3d56" points="113.091 174.606 106.746 174.606 106.746 180.373 113.667 180.373 113.667 174.606 113.091 174.606"/>
  <rect id="svg_19" fill="#3f3d56" height="5.76733" width="6.9208" y="164.22447" x="118.28112"/>
  <rect id="svg_20" fill="#3f3d56" height="5.76733" width="6.9208" y="174.60567" x="118.28112"/>
  <polygon id="svg_21" fill="#3f3d56" points="113.667 202.289 113.667 196.522 106.746 196.522 106.746 202.289 113.091 202.289 113.667 202.289"/>
  <polygon id="svg_22" fill="#3f3d56" points="113.091 206.903 106.746 206.903 106.746 212.67 113.667 212.67 113.667 206.903 113.091 206.903"/>
  <rect id="svg_23" fill="#3f3d56" height="5.76733" width="6.9208" y="196.52153" x="118.28112"/>
  <rect id="svg_24" fill="#3f3d56" height="5.76733" width="6.9208" y="206.90273" x="118.28112"/>
  <polygon id="svg_25" fill="#3f3d56" points="113.667 234.586 113.667 228.819 106.746 228.819 106.746 234.586 113.091 234.586 113.667 234.586"/>
  <polygon id="svg_26" fill="#3f3d56" points="113.091 239.2 106.746 239.2 106.746 244.967 113.667 244.967 113.667 239.2 113.091 239.2"/>
  <rect id="svg_27" fill="#3f3d56" height="5.76733" width="6.9208" y="228.81859" x="118.28112"/>
  <rect id="svg_28" fill="#3f3d56" height="5.76733" width="6.9208" y="239.19979" x="118.28112"/>
  <polygon id="svg_29" fill="#3f3d56" points="113.667 266.883 113.667 261.116 106.746 261.116 106.746 266.883 113.091 266.883 113.667 266.883"/>
  <polygon id="svg_30" fill="#3f3d56" points="113.091 271.497 106.746 271.497 106.746 277.264 113.667 277.264 113.667 271.497 113.091 271.497"/>
  <rect id="svg_31" fill="#3f3d56" height="5.76733" width="6.9208" y="261.11565" x="118.28112"/>
  <rect id="svg_32" fill="#3f3d56" height="5.76733" width="6.9208" y="271.49685" x="118.28112"/>
  <rect id="svg_33" fill="#333333" height="13.8416" width="66.90105" y="169.9918" x="11.00875"/>
  <rect id="svg_34" fill="#333333" height="13.8416" width="66.90105" y="197.675" x="11.00875"/>
  <rect id="svg_35" fill="#333333" height="13.8416" width="66.90105" y="225.35819" x="11.00875"/>
  <rect id="svg_36" fill="#333333" height="13.8416" width="66.90105" y="253.04138" x="11.00875"/>
  <path id="svg_37" fill="#ff9f43" d="m138.204506,302.354937a19.80041,19.80041 0 0 0 -4.148,2.867a19.742,19.742 0 0 0 -4.21607,-2.867a19.80041,19.80041 0 0 0 -4.148,2.867a19.742,19.742 0 0 0 -4.21607,-2.867s-6.50164,3.19762 -6.48362,7.10505q0.0006,0.14657 0.01332,0.2916c0.22191,2.55827 6.94384,3.21013 10.6365,2.00448a15.2468,15.2468 0 0 0 8.36405,0c3.67688,1.225 10.53552,0.52316 10.736,-2.06447q0.01126,-0.14511 0.01067,-0.2917c-0.01794,-3.90742 -6.54878,-7.04496 -6.54878,-7.04496z"/>
  <polygon id="svg_38" fill="#333333" points="108.177 167.108 102.409 162.494 134.706 133.658 216.602 133.658 216.602 159.034 163.543 194.791 108.177 167.108"/>
  <polygon id="svg_39" fill="#ccc" points="231.534 149.833 231.534 134.234 220.661 134.234 220.661 138.054 216.602 133.658 190.073 162.494 179.692 169.415 163.595 287.016 187.87 311.291 244.286 311.291 244.286 163.648 231.534 149.833"/>
  <rect id="svg_40" fill="#f2f2f2" height="148.79717" width="87.66345" y="162.49427" x="102.40931"/>
  <rect id="svg_41" fill="#ccc" height="36.33419" width="16.14853" y="274.95725" x="136.43657"/>
  <polygon id="svg_42" fill="#333333" points="119.135 285.338 119.135 279.571 112.214 279.571 112.214 285.338 118.558 285.338 119.135 285.338"/>
  <polygon id="svg_43" fill="#333333" points="118.558 289.952 112.214 289.952 112.214 295.72 119.135 295.72 119.135 289.952 118.558 289.952"/>
  <rect id="svg_44" fill="#333333" height="5.76733" width="6.9208" y="279.57111" x="123.74844"/>
  <rect id="svg_45" fill="#333333" height="5.76733" width="6.9208" y="289.95231" x="123.74844"/>
  <polygon id="svg_46" fill="#333333" points="166.427 285.338 166.427 279.571 159.506 279.571 159.506 285.338 165.85 285.338 166.427 285.338"/>
  <polygon id="svg_47" fill="#333333" points="165.85 289.952 159.506 289.952 159.506 295.72 166.427 295.72 166.427 289.952 165.85 289.952"/>
  <rect id="svg_48" fill="#333333" height="5.76733" width="6.9208" y="279.57111" x="171.04056"/>
  <rect id="svg_49" fill="#333333" height="5.76733" width="6.9208" y="289.95231" x="171.04056"/>
  <polygon id="svg_50" fill="#333333" points="214.8719940185547,169.99200439453125 214.8719940185547,164.2239990234375 207.9510040283203,164.2239990234375 207.9510040283203,169.99200439453125 214.29600524902344,169.99200439453125 214.8719940185547,169.99200439453125 "/>
  <polygon id="svg_51" fill="#333333" points="214.296 174.606 207.951 174.606 207.951 180.373 214.872 180.373 214.872 174.606 214.296 174.606"/>
  <rect id="svg_52" fill="#333333" height="5.76733" width="6.9208" y="164.22447" x="219.48615"/>
  <rect id="svg_53" fill="#333333" height="5.76733" width="6.9208" y="174.60567" x="219.48615"/>
  <polygon id="svg_54" fill="#333333" points="214.872 202.289 214.872 196.522 207.951 196.522 207.951 202.289 214.296 202.289 214.872 202.289"/>
  <polygon id="svg_55" fill="#333333" points="214.296 206.903 207.951 206.903 207.951 212.67 214.872 212.67 214.872 206.903 214.296 206.903"/>
  <rect id="svg_56" fill="#333333" height="5.76733" width="6.9208" y="196.52153" x="219.48615"/>
  <rect id="svg_57" fill="#333333" height="5.76733" width="6.9208" y="206.90273" x="219.48615"/>
  <polygon id="svg_58" fill="#333333" points="214.872 234.586 214.872 228.819 207.951 228.819 207.951 234.586 214.296 234.586 214.872 234.586"/>
  <polygon id="svg_59" fill="#333333" points="214.296 239.2 207.951 239.2 207.951 244.967 214.872 244.967 214.872 239.2 214.296 239.2"/>
  <rect id="svg_60" fill="#333333" height="5.76733" width="6.9208" y="228.81859" x="219.48615"/>
  <rect id="svg_61" fill="#333333" height="5.76733" width="6.9208" y="239.19979" x="219.48615"/>
  <polygon id="svg_62" fill="#333333" points="214.872 266.883 214.872 261.116 207.951 261.116 207.951 266.883 214.296 266.883 214.872 266.883"/>
  <polygon id="svg_63" fill="#333333" points="214.296 271.497 207.951 271.497 207.951 277.264 214.872 277.264 214.872 271.497 214.296 271.497"/>
  <rect id="svg_64" fill="#333333" height="5.76733" width="6.9208" y="261.11565" x="219.48615"/>
  <rect id="svg_65" fill="#333333" height="5.76733" width="6.9208" y="271.49685" x="219.48615"/>
  <rect id="svg_66" fill="#333333" height="13.8416" width="66.90105" y="169.9918" x="112.21378"/>
  <rect id="svg_67" fill="#333333" height="13.8416" width="66.90105" y="197.675" x="112.21378"/>
  <rect id="svg_68" fill="#333333" height="13.8416" width="66.90105" y="225.35819" x="112.21378"/>
  <rect id="svg_69" fill="#333333" height="13.8416" width="66.90105" y="253.04138" x="112.21378"/>
  <rect id="svg_71" fill="#333333" height="110.31858" width="2.79288" y="200.4493" x="302.51173"/>
  <path id="svg_72" fill="#e6e6e6" d="m332.559306,232.555297q0.00839,1.82036 -0.03361,3.62324c-1.00149,43.42714 -53.06593,43.6671 -54.46768,0.251q-0.05819,-1.80219 -0.067,-3.62278c-0.22373,-48.54284 26.879,-88.02034 26.879,-88.02034s27.46556,39.22604 27.68929,87.76888z"/>
  <path id="svg_73" fill="#ccc" d="m295.591246,302.110397a19.8,19.8 0 0 0 -4.148,2.867a19.74242,19.74242 0 0 0 -4.21608,-2.867a19.80023,19.80023 0 0 0 -4.148,2.867a19.74222,19.74222 0 0 0 -4.21607,-2.867s-6.50164,3.19763 -6.48362,7.10506q0.0006,0.14657 0.01332,0.29159c0.22191,2.55828 6.94384,3.21014 10.6365,2.00449a15.2469,15.2469 0 0 0 8.364,0c3.67688,1.225 10.53552,0.52316 10.736,-2.06447q0.01127,-0.14511 0.01067,-0.2917c-0.01786,-3.90743 -6.54872,-7.04497 -6.54872,-7.04497z"/>
  <polygon id="svg_74" fill="#333333" points="373.739 263.999 370.279 258.232 402.576 205.457 485.625 205.457 485.625 213.531 455.635 270.92 421.031 277.841 373.739 263.999"/>
  <polygon id="svg_75" fill="#ccc" points="499.921 246.794 499.921 203.655 489.048 203.655 489.048 209.346 485.625 205.457 457.942 258.232 453.328 262.846 447.561 285.915 457.942 311.291 511.001 311.291 511.001 259.385 499.921 246.794"/>
  <rect id="svg_76" fill="#f2f2f2" height="53.05945" width="87.66345" y="258.23198" x="370.27859"/>
  <rect id="svg_77" fill="#333333" height="16.14853" width="18.45546" y="274.95725" x="427.37517"/>
  <rect id="svg_78" fill="#ccc" height="36.91092" width="16.14853" y="274.38051" x="403.72911"/>
  <polygon id="svg_79" fill="#333333" points="385.274 280.148 385.274 274.381 378.353 274.381 378.353 280.148 384.697 280.148 385.274 280.148"/>
  <polygon id="svg_80" fill="#333333" points="384.697 284.762 378.353 284.762 378.353 290.529 385.274 290.529 385.274 284.762 384.697 284.762"/>
  <rect id="svg_81" fill="#333333" height="5.76733" width="6.9208" y="274.38051" x="389.88751"/>
  <rect id="svg_82" fill="#333333" height="5.76733" width="6.9208" y="284.76171" x="389.88751"/>
  <polygon id="svg_83" fill="#3f3d56" points="482.742 281.561 482.742 275.794 475.821 275.794 475.821 281.561 482.165 281.561 482.742 281.561"/>
  <polygon id="svg_84" fill="#3f3d56" points="482.165 286.175 475.821 286.175 475.821 291.942 482.742 291.942 482.742 286.175 482.165 286.175"/>
  <rect id="svg_85" fill="#3f3d56" height="5.76733" width="6.9208" y="275.79365" x="487.35542"/>
  <rect id="svg_86" fill="#3f3d56" height="5.76733" width="6.9208" y="286.17485" x="487.35542"/>
  <polygon id="svg_87" fill="#333333" points="410.036 227.148 409.125 225.631 417.623 211.745 439.474 211.745 439.474 213.869 431.584 228.969 422.479 230.79 410.036 227.148"/>
  <polygon id="svg_88" fill="#ccc" points="439.474 211.745 432.191 225.631 430.977 226.845 429.459 232.915 432.191 239.591 446.151 239.591 446.151 225.934 439.474 211.745"/>
  <rect id="svg_89" fill="#f2f2f2" height="13.96053" width="23.06522" y="225.63077" x="409.12533"/>
  <polygon id="svg_90" fill="#333333" points="418.897 231.647 418.897 228.893 415.593 228.893 415.593 231.647 418.622 231.647 418.897 231.647"/>
  <polygon id="svg_91" fill="#333333" points="418.622 233.85 415.593 233.85 415.593 236.603 418.897 236.603 418.897 233.85 418.622 233.85"/>
  <rect id="svg_92" fill="#333333" height="2.75372" width="3.30446" y="228.89288" x="421.10008"/>
  <rect id="svg_93" fill="#333333" height="2.75372" width="3.30446" y="233.84957" x="421.10008"/>
  <polygon id="svg_94" fill="#333333" points="478.29 263.999 474.829 258.232 507.126 205.457 590.176 205.457 590.176 213.531 560.186 270.92 525.582 277.841 478.29 263.999"/>
  <polygon id="svg_95" fill="#ccc" points="604.472 246.794 604.472 203.655 593.599 203.655 593.599 209.346 590.176 205.457 562.493 258.232 557.879 262.846 552.111 285.915 562.493 311.291 615.552 311.291 615.552 259.385 604.472 246.794"/>
  <rect id="svg_96" fill="#f2f2f2" height="53.05945" width="87.66345" y="258.23197" x="474.82923"/>
  <rect id="svg_97" fill="#333333" height="16.14853" width="18.45546" y="274.95723" x="531.92582"/>
  <rect id="svg_98" fill="#ccc" height="36.91092" width="16.14853" y="274.3805" x="508.27976"/>
  <polygon id="svg_99" fill="#333333" points="489.824 280.148 489.824 274.38 482.903 274.38 482.903 280.148 489.248 280.148 489.824 280.148"/>
  <polygon id="svg_100" fill="#333333" points="489.248 284.762 482.903 284.762 482.903 290.529 489.824 290.529 489.824 284.762 489.248 284.762"/>
  <rect id="svg_101" fill="#333333" height="5.76733" width="6.9208" y="274.3805" x="494.43816"/>
  <rect id="svg_102" fill="#333333" height="5.76733" width="6.9208" y="284.7617" x="494.43816"/>
  <polygon id="svg_103" fill="#3f3d56" points="587.292 280.725 587.292 274.957 580.371 274.957 580.371 280.725 586.715 280.725 587.292 280.725"/>
  <polygon id="svg_104" fill="#3f3d56" points="586.715 285.338 580.371 285.338 580.371 291.106 587.292 291.106 587.292 285.338 586.715 285.338"/>
  <rect id="svg_105" fill="#3f3d56" height="5.76733" width="6.9208" y="274.95723" x="591.90607"/>
  <rect id="svg_106" fill="#3f3d56" height="5.76733" width="6.9208" y="285.33843" x="591.90607"/>
  <polygon id="svg_107" fill="#333333" points="579.495 263.999 576.034 258.232 608.331 205.457 691.381 205.457 691.381 213.531 661.391 270.92 626.787 277.841 579.495 263.999"/>
  <polygon id="svg_108" fill="#ccc" points="705.677 246.794 705.677 203.655 694.804 203.655 694.804 209.346 691.381 205.457 663.698 258.232 659.084 262.846 653.316 285.915 663.698 311.291 716.757 311.291 716.757 259.385 705.677 246.794"/>
  <rect id="svg_109" fill="#f2f2f2" height="53.05945" width="87.66345" y="258.23197" x="576.03426"/>
  <rect id="svg_110" fill="#333333" height="16.14853" width="18.45546" y="274.95723" x="633.13085"/>
  <rect id="svg_111" fill="#ccc" height="36.91092" width="16.14853" y="274.3805" x="609.48479"/>
  <polygon id="svg_112" fill="#333333" points="591.029 280.148 591.029 274.38 584.109 274.38 584.109 280.148 590.453 280.148 591.029 280.148"/>
  <polygon id="svg_113" fill="#333333" points="590.453 284.762 584.109 284.762 584.109 290.529 591.029 290.529 591.029 284.762 590.453 284.762"/>
  <rect id="svg_114" fill="#333333" height="5.76733" width="6.9208" y="274.3805" x="595.64319"/>
  <rect id="svg_115" fill="#333333" height="5.76733" width="6.9208" y="284.7617" x="595.64319"/>
  <polygon id="svg_116" fill="#3f3d56" points="688.497 280.725 688.497 274.957 681.576 274.957 681.576 280.725 687.921 280.725 688.497 280.725"/>
  <polygon id="svg_117" fill="#3f3d56" points="687.921 285.338 681.576 285.338 681.576 291.106 688.497 291.106 688.497 285.338 687.921 285.338"/>
  <rect id="svg_118" fill="#3f3d56" height="5.76733" width="6.9208" y="274.95723" x="693.1111"/>
  <rect id="svg_119" fill="#3f3d56" height="5.76733" width="6.9208" y="285.33843" x="693.1111"/>
  <polygon id="svg_120" fill="#333333" points="512.077 227.985 511.167 226.467 519.664 212.581 541.516 212.581 541.516 214.706 533.625 229.806 524.52 231.626 512.077 227.985"/>
  <polygon id="svg_121" fill="#ccc" points="541.516 212.581 534.232 226.467 533.018 227.681 531.501 233.751 534.232 240.428 548.193 240.428 548.193 226.771 541.516 212.581"/>
  <rect id="svg_122" fill="#f2f2f2" height="13.96053" width="23.06522" y="226.46716" x="511.16676"/>
  <polygon id="svg_123" fill="#333333" points="520.939 232.483 520.939 229.729 517.634 229.729 517.634 232.483 520.663 232.483 520.939 232.483"/>
  <polygon id="svg_124" fill="#333333" points="520.663 234.686 517.634 234.686 517.634 237.44 520.939 237.44 520.939 234.686 520.663 234.686"/>
  <rect id="svg_125" fill="#333333" height="2.75372" width="3.30446" y="229.72928" x="523.14151"/>
  <rect id="svg_126" fill="#333333" height="2.75372" width="3.30446" y="234.68596" x="523.14151"/>
  <polygon id="svg_127" fill="#333333" points="614.119 227.148 613.208 225.631 621.706 211.745 643.557 211.745 643.557 213.869 635.666 228.969 626.562 230.79 614.119 227.148"/>
  <polygon id="svg_128" fill="#ccc" points="643.557 211.745 636.273 225.631 635.059 226.845 633.542 232.915 636.273 239.591 650.234 239.591 650.234 225.934 643.557 211.745"/>
  <rect id="svg_129" fill="#f2f2f2" height="13.96053" width="23.06522" y="225.63076" x="613.20819"/>
  <polygon id="svg_130" fill="#333333" points="622.98 231.647 622.98 228.893 619.676 228.893 619.676 231.647 622.705 231.647 622.98 231.647"/>
  <polygon id="svg_131" fill="#333333" points="622.705 233.85 619.676 233.85 619.676 236.603 622.98 236.603 622.98 233.85 622.705 233.85"/>
  <rect id="svg_132" fill="#333333" height="2.75372" width="3.30446" y="228.89287" x="625.18295"/>
  <rect id="svg_133" fill="#333333" height="2.75372" width="3.30446" y="233.84956" x="625.18295"/>
  <polygon id="svg_134" fill="#333333" points="684.045 263.999 680.585 258.232 712.882 205.457 795.932 205.457 795.932 213.531 765.941 270.92 731.337 277.841 684.045 263.999"/>
  <polygon id="svg_135" fill="#ccc" points="810.228 212.859 810.228 203.655 799.354 203.655 799.354 209.346 795.932 205.457 768.248 258.232 763.634 262.846 757.867 285.915 768.248 311.291 821.308 311.291 821.308 259.385 810.228 212.859"/>
  <rect id="svg_136" fill="#f2f2f2" height="53.05945" width="87.66345" y="258.23197" x="680.58491"/>
  <rect id="svg_137" fill="#333333" height="16.14853" width="18.45546" y="274.95723" x="737.6815"/>
  <rect id="svg_138" fill="#ccc" height="36.91092" width="16.14853" y="274.3805" x="714.03544"/>
  <polygon id="svg_139" fill="#333333" points="695.58 280.148 695.58 274.38 688.659 274.38 688.659 280.148 695.003 280.148 695.58 280.148"/>
  <polygon id="svg_140" fill="#333333" points="695.003 284.762 688.659 284.762 688.659 290.529 695.58 290.529 695.58 284.762 695.003 284.762"/>
  <rect id="svg_141" fill="#333333" height="5.76733" width="6.9208" y="274.3805" x="700.19384"/>
  <rect id="svg_142" fill="#333333" height="5.76733" width="6.9208" y="284.7617" x="700.19384"/>
  <polygon id="svg_143" fill="#333333" points="793.048 280.725 793.048 274.957 786.127 274.957 786.127 280.725 792.471 280.725 793.048 280.725"/>
  <polygon id="svg_144" fill="#333333" points="792.471 285.338 786.127 285.338 786.127 291.106 793.048 291.106 793.048 285.338 792.471 285.338"/>
  <rect id="svg_145" fill="#333333" height="5.76733" width="6.9208" y="274.95723" x="797.66175"/>
  <rect id="svg_146" fill="#333333" height="5.76733" width="6.9208" y="285.33843" x="797.66175"/>
  <polygon id="svg_147" fill="#333333" points="716.16 227.985 715.25 226.467 723.747 212.581 745.599 212.581 745.599 214.706 737.708 229.806 728.603 231.626 716.16 227.985"/>
  <polygon id="svg_148" fill="#ccc" points="745.599 212.581 738.315 226.467 737.101 227.681 735.583 233.751 738.315 240.428 752.275 240.428 752.275 226.771 745.599 212.581"/>
  <rect id="svg_149" fill="#f2f2f2" height="13.96053" width="23.06522" y="226.46716" x="715.24963"/>
  <polygon id="svg_150" fill="#333333" points="725.021 232.483 725.021 229.729 721.717 229.729 721.717 232.483 724.746 232.483 725.021 232.483"/>
  <polygon id="svg_151" fill="#333333" points="724.746 234.686 721.717 234.686 721.717 237.44 725.021 237.44 725.021 234.686 724.746 234.686"/>
  <rect id="svg_152" fill="#333333" height="2.75372" width="3.30446" y="229.72928" x="727.22438"/>
  <rect id="svg_153" fill="#333333" height="2.75372" width="3.30446" y="234.68596" x="727.22438"/>
  <rect id="svg_154" fill="#333333" height="1.67281" width="919.5818" y="310.71817" x="0.83641"/>
  <rect id="svg_155" fill="#333333" height="1.67281" width="919.5818" y="467.12594"/>
  <rect id="svg_156" fill="#333333" height="110.28555" width="2.79204" y="200.43263" x="857.47804"/>
  <path id="svg_157" fill="#e6e6e6" d="m887.516616,232.529017q0.00839,1.81982 -0.0336,3.62216c-1.00119,43.41413 -53.05,43.654 -54.45137,0.25095q-0.05817,-1.80165 -0.067,-3.62169c-0.22366,-48.5283 26.871,-87.994 26.871,-87.994s27.45731,39.21428 27.68097,87.74258z"/>
  <rect id="svg_158" fill="#333333" height="4.67111" width="29.42798" y="418.72342" x="278.05874"/>
  <path id="svg_159" fill="#ff9f43" d="m520.255056,419.769597l-6.07169,1.40458l-230.75272,0.12334l-2.075,-4.83449a48.79834,48.79834 0 0 1 -3.58757,-26.38619c0.99382,-6.67689 3.4842,-13.31134 9.14054,-16.19294l10.24,-68.20367l127.66363,-0.22847l49.39258,39.83826s23.29921,-0.41884 35.957,15.33939c4.00584,4.99131 6.94752,11.604 7.73692,20.37124l0.49954,8.19755l1.85677,30.5714z"/>
  <circle id="svg_160" fill="#333333" r="28.49376" cy="418.62891" cx="469.57291"/>
  <circle id="svg_161" fill="#ccc" r="14.99672" cy="418.62891" cx="469.57291"/>
  <circle id="svg_162" fill="#333333" r="28.49376" cy="418.70407" cx="328.97257"/>
  <circle id="svg_163" fill="#ccc" r="14.99672" cy="418.70407" cx="328.97257"/>
  <polygon id="svg_164" fill="#fff" points="454.581 340.633 385.653 340.663 377.239 340.663 363.032 340.673 363.032 339.637 363.022 327.145 363.012 313.118 372.463 313.118 380.877 313.108 395.782 313.098 404.196 313.098 421.403 313.088 454.581 340.633"/>
  <polygon id="svg_165" fill="#fff" points="351.817 340.683 315.389 340.703 315.379 333.555 315.379 321.064 315.369 313.148 320.703 313.148 329.117 313.138 351.807 313.128 351.817 340.683"/>
  <rect id="svg_166" fill="#333333" height="8.87511" width="4.67111" y="361.22997" x="363.04331"/>
  <rect id="svg_167" fill="#3f3d56" transform="rotate(89.96936798095703 960.5438842773436,-229.49786376953128) " height="8.87511" width="4.67111" y="286.576376" x="1538.341514"/>
  <path id="svg_168" fill="#333333" d="m439.16914,331.10583l0.51383,0a9.76261,9.76261 0 0 1 9.76261,9.76261l0,0a9.76261,9.76261 0 0 1 -9.76261,9.76261l-0.51383,0a0,0 0 0 1 0,0l0,-19.52522a0,0 0 0 1 0,0z"/>
  <path id="svg_169" fill="#333333" d="m518.398326,389.198197a15.08979,15.08979 0 0 1 -8.23646,-28.56879c4.00584,4.99131 6.94752,11.604 7.73692,20.37124l0.49954,8.19755z"/>
  <polygon id="svg_170" fill="#f2f2f2" points="380.877 313.108 363.032 339.637 363.022 327.145 372.463 313.118 380.877 313.108"/>
  <polygon id="svg_171" fill="#f2f2f2" points="329.117 313.138 315.379 333.555 315.379 321.064 320.703 313.148 329.117 313.138"/>
  <polygon id="svg_172" fill="#f2f2f2" points="404.196 313.098 385.653 340.663 377.239 340.663 395.782 313.098 404.196 313.098"/>
  <rect id="svg_173" fill="#3f3d56" transform="rotate(-179.96937561035156 2351.6218261718745,1415.4555664062498) " height="2.83742" width="17.87573" y="1414.036797" x="2342.684125"/>
  <path id="svg_174" fill="#333333" d="m552.592416,357.821757l3.68818,0.85319l140.16837,0.07493l1.26043,-2.93667a29.6421,29.6421 0 0 0 2.17924,-16.028c-0.60369,-4.05581 -2.11645,-8.08584 -5.55234,-9.83624l-6.22019,-41.42962l-77.548,-0.13879l-30.003,24.19934s-14.15287,-0.25441 -21.84173,9.31776a22.46762,22.46762 0 0 0 -4.69972,12.3743l-0.30344,4.97952l-1.1278,18.57028z"/>
  <circle id="svg_175" fill="#333333" r="17.30824" cy="357.12886" cx="583.37875"/>
  <circle id="svg_176" fill="#ccc" r="9.1096" cy="357.12886" cx="583.37875"/>
  <circle id="svg_177" fill="#333333" r="17.30824" cy="357.17451" cx="668.78499"/>
  <circle id="svg_178" fill="#ccc" r="9.1096" cy="357.17451" cx="668.78499"/>
  <polygon id="svg_179" fill="#fff" points="592.486 309.751 634.355 309.77 639.466 309.77 648.096 309.776 648.096 309.146 648.102 301.558 648.108 293.037 642.367 293.037 637.256 293.031 628.203 293.025 623.091 293.025 612.639 293.019 592.486 309.751"/>
  <polygon id="svg_180" fill="#fff" points="654.908 309.782 677.036 309.794 677.042 305.452 677.042 297.864 677.048 293.056 673.808 293.056 668.697 293.05 654.915 293.044 654.908 309.782"/>
  <rect id="svg_181" fill="#3f3d56" transform="rotate(-179.96937561035156 2219.3283691406245,1314.4909667968748) " height="5.39109" width="2.83742" y="1311.795431" x="2217.909727"/>
  <rect id="svg_182" fill="#3f3d56" transform="rotate(90.03063201904297 1828.0502929687498,60.92409133911119) " height="5.39109" width="2.83742" y="58.228546" x="1826.631546"/>
  <path id="svg_183" fill="#3f3d56" transform="rotate(-179.96937561035156 2075.5036621093755,1269.2735595703123) " d="m2072.382372,1263.343389l0.31212,0a5.9302,5.9302 0 0 1 5.9302,5.9302l0,0a5.9302,5.9302 0 0 1 -5.9302,5.9302l-0.31212,0a0,0 0 0 1 0,0l0,-11.8604a0,0 0 0 1 0,0z"/>
  <path id="svg_184" fill="#333333" d="m553.720266,339.251477a9.16614,9.16614 0 0 0 5.00316,-17.35382a22.46762,22.46762 0 0 0 -4.69972,12.3743l-0.30344,4.97952z"/>
  <polygon id="svg_185" fill="#f2f2f2" points="637.256 293.031 648.096 309.146 648.102 301.558 642.367 293.037 637.256 293.031"/>
  <polygon id="svg_186" fill="#f2f2f2" points="668.697 293.05 677.042 305.452 677.042 297.864 673.808 293.056 668.697 293.05"/>
  <polygon id="svg_187" fill="#f2f2f2" points="623.091 293.025 634.355 309.77 639.466 309.77 628.203 293.025 623.091 293.025"/>
  <path id="svg_188" fill="#333333" d="m160.140876,486.958547s0,31.7184 7.27963,40.038c0,0 1.55993,4.15979 2.0799,5.71971a21.8609,21.8609 0 0 0 1.04,2.59987l0,2.0799s14.03929,-1.55992 15.59921,-5.19974l-2.59987,-3.11984s-0.52,-0.52 0,-2.0799a1.06816,1.06816 0 0 0 -1.03995,-1.55992l-3.63982,-8.31957l0.52,-34.31827l-2.59987,-47.3176l-22.35887,-1.04l5.71964,52.51736z"/>
  <path id="svg_189" fill="#333333" d="m171.580296,534.276157s-3.63981,10.91944 0,11.43942s35.35821,1.03994 34.83824,-3.11985s-10.91943,-3.63981 -10.91943,-3.63981l-10.91944,-6.75966l-12.99937,2.0799z"/>
  <path id="svg_190" fill="#333333" d="m139.341936,435.481157a23.594,23.594 0 0 0 3.11984,14.03929c4.15979,7.27963 1.55992,31.71839 1.55992,31.71839l-36.91813,32.23837s7.27963,12.47937 9.8795,11.95939s43.67779,-33.79828 43.67779,-33.79828l16.11918,-54.07726l-37.4381,-2.0799z"/>
  <path id="svg_191" fill="#333333" d="m107.610906,512.099447s-11.17148,2.77139 -9.6621,6.12406s18.05055,30.42141 21.28568,27.75529s-2.77139,-11.17148 -2.77139,-11.17148l-0.13628,-12.84168l-8.71591,-9.86619z"/>
  <circle id="svg_192" fill="#ffb8b8" r="11.95939" cy="338.76606" cx="159.6209"/>
  <path id="svg_193" fill="#ffb8b8" d="m150.211046,342.985747l0.529,15.38951l10.06294,3.976s0.98685,-15.75784 2.37988,-16.63145s-12.97182,-2.73406 -12.97182,-2.73406z"/>
  <path id="svg_194" fill="#575a89" d="m163.260716,364.244767s-14.03928,-14.03929 -17.6791,-13.51932s-3.63982,2.0799 -3.63982,3.11985s1.04,1.55992 0,2.07989s-2.07989,0 -2.07989,1.55992s-9.35953,17.15913 -6.23968,34.31826s6.75965,25.47871 5.19973,34.83824s-0.52,11.43942 -0.52,11.43942s38.998,3.11984 39.518,-0.52s-1.55992,-1.55993 1.03994,-4.15979s1.55993,-2.59987 1.55993,-4.15979s-11.43939,-64.99668 -17.15911,-64.99668z"/>
  <path id="svg_195" fill="#ffb8b8" d="m155.981106,434.961187s6.23969,15.07923 10.91945,11.43942s-2.07989,-16.11919 -2.07989,-16.11919l-8.83956,4.67977z"/>
  <path id="svg_196" fill="#575a89" d="m140.901856,365.284717s-12.2168,1.39865 -7.66832,23.83815s22.22757,48.43819 22.22757,48.43819l11.95939,-5.71972l-15.59921,-30.67844l3.63982,-19.239s2.0799,-18.1991 -14.55925,-16.63918z"/>
  <polygon id="svg_197" opacity="0.2" points="151.561 401.423 168.72 430.021 167.161 431.581 151.561 401.423"/>
  <polygon id="svg_198" opacity="0.2" points="142.479 414.75 156.241 437.301 151.561 437.301 142.479 414.75"/>
  <path id="svg_199" fill="#333333" d="m154.207926,345.952407a17.2149,17.2149 0 0 1 3.1408,-0.93564a8.21673,8.21673 0 0 0 5.459,-9.212a4.70047,4.70047 0 0 1 -0.19692,-1.51826a2.89913,2.89913 0 0 1 2.417,-2.12911a23.79183,23.79183 0 0 0 3.36567,-0.641a5.09755,5.09755 0 0 0 2.9742,-4.08773a8.4438,8.4438 0 0 0 -1.12795,-5.08928l-0.40259,1.15848a4.29716,4.29716 0 0 1 -1.31542,-1.96739a2.71,2.71 0 0 0 -2.06485,1.66048c-0.64621,0.38106 -0.7393,-1.18382 -1.45309,-1.41468a1.28216,1.28216 0 0 0 -0.89094,0.21975c-1.43831,0.67084 -3.1094,0.09727 -4.65228,-0.27457a17.51318,17.51318 0 0 0 -8.12991,-0.00958a9.73137,9.73137 0 0 0 -4.8047,2.47217a11.52862,11.52862 0 0 0 -2.24763,3.8622a22.25,22.25 0 0 0 -1.81351,10.80569a15.29519,15.29519 0 0 0 3.60453,8.10394c1.02915,1.18574 4.38682,5.32245 6.22789,4.61718c2.31338,-0.88621 -0.81498,-4.1795 1.9107,-5.62065z"/>
  <rect id="svg_200" opacity="0.2" transform="rotate(-69.12313842773438 -543.4424438476562,531.234375) " height="0.73988" width="38.39675" y="1174.264145" x="-255.779494"/>
  <circle id="svg_201" fill="#d0cde1" r="0.7397" cy="366.36001" cx="163.187"/>
  <line id="svg_202" fill="#d0cde1" y2="386.70175" x2="169.47445" y1="366.36001" x1="163.187"/>
  <path id="svg_203" fill="#d0cde1" d="m169.474456,387.071597a0.36967,0.36967 0 0 1 -0.35324,-0.26078l-6.28745,-20.34155a0.36975,0.36975 0 1 1 0.70648,-0.21852l6.28744,20.34192a0.37017,0.37017 0 0 1 -0.35323,0.47893z"/>
  <circle id="svg_204" fill="#2f2e41" r="12.48898" cy="345.69341" cx="833.83449"/>
  <path id="svg_205" fill="#a0616a" d="m816.082246,421.345877l-1.89346,3.78693s-6.05909,9.846 -1.89347,10.98211s5.491,-7.38452 5.491,-7.38452l0.75739,-4.54432l-2.46146,-2.8402z"/>
  <polygon id="svg_206" fill="#d0cde1" points="823.656 402.033 818.922 414.529 814.189 423.239 820.059 427.026 824.792 418.695 830.473 405.63 823.656 402.033"/>
  <path id="svg_207" fill="#a0616a" d="m837.099726,460.540657l9.46733,10.03537l16.66251,28.21265l7.19517,-2.27216l-8.52063,-16.85186s-4.923,-12.87557 -7.38452,-14.57969s-6.62713,-12.87557 -6.62713,-12.87557l-4.54432,-3.59758l-6.24841,11.92884z"/>
  <path id="svg_208" fill="#a0616a" d="m817.597026,466.031657l-0.75739,3.21889s-2.46151,10.03537 -6.24844,14.57969l-9.08864,15.71577l-6.81647,-2.27216l13.44361,-31.81019l9.46733,0.568z"/>
  <circle id="svg_209" fill="#a0616a" r="10.22472" cy="350.05688" cx="831.70334"/>
  <path id="svg_210" fill="#a0616a" d="m839.750576,355.074557l1.32543,10.9821l-8.5206,4.16563s0,-9.46733 -2.27216,-11.92884l9.46733,-3.21889z"/>
  <path id="svg_211" fill="#a0616a" d="m866.448456,425.890197l0.94673,3.21889s6.24844,12.30753 0.94673,12.30753s-6.24843,-11.36079 -6.24843,-11.36079l-0.568,-2.8402l4.92297,-1.32543z"/>
  <path id="svg_212" fill="#333333" d="m822.898726,413.014657l1.32543,9.278l-16.09446,33.893l-0.94674,9.846l30.10615,3.787l6.62713,-18.36663l10.60341,13.633l-6.05909,-14.01165s-1.89347,-9.46733 -1.32543,-11.92884s-0.37869,-14.769 -2.08281,-17.79858s-22.15359,-8.3313 -22.15359,-8.3313z"/>
  <path id="svg_213" fill="#333333" d="m862.093486,498.788657l9.08863,-3.02954l2.8402,4.54432s5.49106,1.51477 5.30171,5.491a67.66041,67.66041 0 0 0 0.94673,10.79276l-3.97628,0.37869l-1.51477,-7.76321l-7.76321,9.278s-13.82231,0.75739 -14.39035,-1.51477s9.846,-4.73367 9.846,-4.73367l1.70412,-8.1419l-2.08278,-5.30168z"/>
  <path id="svg_214" fill="#333333" d="m794.118046,496.137797l8.33125,2.65085l0,1.89347s2.4615,3.78693 2.08281,7.00582s-2.08281,10.98211 -2.08281,10.98211l-4.355,0l0.18935,-7.19517l-8.70994,7.19517s-15.52643,-1.13608 -15.52643,-3.59759s11.92884,-4.16562 11.92884,-4.16562l8.14193,-14.76904z"/>
  <path id="svg_215" fill="#d0cde1" d="m831.987366,367.950127s7.76321,-7.76321 11.3608,-5.86974l0,3.40827s5.3017,2.46151 5.491,6.24844s5.6804,38.248 5.6804,38.248l12.87557,44.87515s-3.97628,6.24844 -18.556,-0.75738l-9.08864,-30.8635s9.65668,34.83978 4.923,34.27174s-23.28964,-43.73907 -23.28964,-43.73907l1.32543,-20.44944s-3.02955,-8.89929 3.02954,-14.95838l6.24854,-10.41409z"/>
  <path id="svg_216" fill="#d0cde1" d="m845.241636,369.086207s3.21889,1.13608 5.49105,6.05909s13.633,39.57345 13.633,39.57345l3.02954,12.30753l-8.5206,2.08281l-4.16562,-12.68622l-15.52643,-28.78069s-2.46154,-15.14773 6.05906,-18.55597z"/>
  <path id="svg_217" fill="#333333" d="m844.493386,341.899977a7.17687,7.17687 0 0 0 -3.37992,-5.836c1.03914,-2.08718 1.96786,-4.46948 1.28285,-6.69813a5.11187,5.11187 0 0 0 -3.85092,-3.44583a10.03253,10.03253 0 0 0 -2.99194,0.03873l-4.66568,0.5292a10.18954,10.18954 0 0 0 -4.373,1.17756a5.06555,5.06555 0 0 0 -0.585,8.13c-3.26435,2.61106 -5.44585,4.59313 -6.93115,8.50049a14.035,14.035 0 0 1 8.81589,-3.156a8.40318,8.40318 0 0 1 8.82886,7.69957a15.55038,15.55038 0 0 0 0.287,3.2601a2.39827,2.39827 0 0 0 2.35662,1.875c-0.15024,0.02122 -1.07517,-2.75616 -0.424,-4.03815l0.01021,-0.02064a1.22022,1.22022 0 0 1 0.663,-0.56893a1.90959,1.90959 0 0 1 2.5383,1.328c0.36219,1.391 0.94176,3.166 1.448,2.69488c0.663,-0.617 0.38406,-6.0575 0.563,-6.9009a15.8352,15.8352 0 0 0 0.40788,-4.56895z"/>
  <path id="svg_218" fill="#d0cde1" d="m841.062106,336.026657s-10.26194,0.66926 -15.16983,-0.22309"/>
  <path id="svg_219" fill="#2f2e41" d="m840.480106,334.653497c1.03919,-2.08719 1.96789,-4.46947 1.28285,-6.69813a5.06,5.06 0 0 0 -1.79005,-2.51615a5.12367,5.12367 0 0 1 2.73679,3.08419c0.685,2.22866 -0.24367,4.61094 -1.28286,6.69813c-0.8242,-0.12305 1.12275,0.53503 -0.94673,-0.56804z"/>
  <polygon id="svg_220" opacity="0.2" points="837.194 387.737 851.963 413.867 857.644 428.068 849.691 414.435 837.194 387.737"/>
  <path id="svg_221" fill="#ff9f43" d="m139.028306,536.251027s-4.6298,10.078 -8.38894,12.90357c-3.80622,-2.83325 -8.52668,-12.90357 -8.52668,-12.90357s-4.6298,10.078 -8.38894,12.90357c-3.80622,-2.83325 -8.52667,-12.90357 -8.52667,-12.90357s-13.149,13.44218 -13.11259,19.80823a4.668,4.668 0 0 0 0.02694,0.47507c0.44881,4.168 14.04335,5.23 21.51145,3.26574a38.02,38.02 0 0 0 16.91562,0c7.4362,1.9957 21.30723,0.85234 21.71267,-3.36346a4.67,4.67 0 0 0 0.02158,-0.47525c-0.03635,-6.36604 -13.24444,-19.71033 -13.24444,-19.71033z"/>
  <path id="svg_222" fill="#e6e6e6" d="m415.267896,536.251027s-4.6298,10.078 -8.38894,12.90357c-3.80622,-2.83325 -8.52667,-12.90357 -8.52667,-12.90357s-4.6298,10.078 -8.38894,12.90357c-3.80622,-2.83325 -8.52668,-12.90357 -8.52668,-12.90357s-13.149,13.44218 -13.11259,19.80823a4.668,4.668 0 0 0 0.02695,0.47507c0.4488,4.168 14.04334,5.23 21.51145,3.26574a38.01993,38.01993 0 0 0 16.91561,0c7.4362,1.9957 21.30723,0.85234 21.71267,-3.36346a4.67,4.67 0 0 0 0.02158,-0.47525c-0.03634,-6.36604 -13.24444,-19.71033 -13.24444,-19.71033z"/>
  <path id="svg_223" fill="#ff9f43" d="m689.719556,536.251027s-4.6298,10.078 -8.38894,12.90357c-3.80622,-2.83325 -8.52667,-12.90357 -8.52667,-12.90357s-4.6298,10.078 -8.38894,12.90357c-3.80622,-2.83325 -8.52667,-12.90357 -8.52667,-12.90357s-13.149,13.44218 -13.1126,19.80823a4.67083,4.67083 0 0 0 0.02695,0.47507c0.4488,4.168 14.04334,5.23 21.51145,3.26574a38.01993,38.01993 0 0 0 16.91561,0c7.4362,1.9957 21.30723,0.85234 21.71267,-3.36346a4.67,4.67 0 0 0 0.02158,-0.47525c-0.03634,-6.36604 -13.24444,-19.71033 -13.24444,-19.71033z"/>
  <path id="svg_225" fill="#e6e6e6" d="m415.737486,92.646227l-0.12116,0.066a8.96025,8.96025 0 0 1 -8.54354,0.03q-0.11361,-0.06128 -0.22588,-0.121a9.00343,9.00343 0 0 0 -8.5339,0.02946l-0.11307,0.06157a8.96023,8.96023 0 0 1 -8.54353,0.03q-0.118,-0.06362 -0.23446,-0.12557a8.95206,8.95206 0 0 0 -8.45056,-0.01495c-3.97388,2.14007 -9.34609,5.79908 -9.32244,9.93134a4.80553,4.80553 0 0 0 0.02775,0.48914c0.46209,4.29137 14.45908,5.38483 22.14827,3.36241a39.14534,39.14534 0 0 0 17.41639,0c7.65634,2.05479 21.938,0.87758 22.35546,-3.463a4.81019,4.81019 0 0 0 0.02221,-0.48931c-0.0236,-4.1345 -5.44331,-7.75515 -9.44214,-9.86512a8.94314,8.94314 0 0 0 -8.4394,0.07903z"/>
  <path id="svg_226" fill="#e6e6e6" d="m595.521696,49.258347l-0.12116,0.066a8.9602,8.9602 0 0 1 -8.54353,0.03q-0.11361,-0.06127 -0.22588,-0.121a9.00345,9.00345 0 0 0 -8.53391,0.02946l-0.11306,0.06157a8.96022,8.96022 0 0 1 -8.54354,0.03q-0.11794,-0.06361 -0.23445,-0.12556a8.95205,8.95205 0 0 0 -8.45057,-0.015c-3.97388,2.14007 -9.34609,5.79909 -9.32243,9.93134a4.80841,4.80841 0 0 0 0.02774,0.48914c0.46209,4.29137 14.45909,5.38483 22.14828,3.36242a39.14548,39.14548 0 0 0 17.41639,0c7.65634,2.05478 21.938,0.87757 22.35545,-3.463a4.80718,4.80718 0 0 0 0.02222,-0.48931c-0.0236,-4.1345 -5.44332,-7.75515 -9.44215,-9.86511a8.94314,8.94314 0 0 0 -8.4394,0.07905z"/>
 </g>
</svg>